# xmcd
#
# Track frame offsets:
# 150
# 18183
# 32235
# 49428
# 59028
# 72222
# 87450
# 96707
# 106897
# 118220
#
# Disc length: 1744 seconds
#
#
# Revision: 1
# Processed by: cddbd v1.5.2PL0 Copyright (c) Steve Scherf et al.
# Submitted via: audiograbber 1.83.01 
#
DISCID=9506ce0a
DTITLE=Various Artist - THE BEST OF INSTRUMENTAL "MOVIE THEMES"
DYEAR=2006
DGENRE=Sound Clip
TTITLE0=ARTHUR'S THEME
TTITLE1=A MAN AND A WOMAN
TTITLE2=BEAUTY AND THE BEAST
TTITLE3=THEME FROM X-FILES
TTITLE4=AXEL F
TTITLE5=THEME FROM MISSION IMPOSSIBLE
TTITLE6=PETER GUNN
TTITLE7=MRS. ROBINSON
TTITLE8=CABARET
TTITLE9=THEME FROM THE PINK PANTHER
EXTD=
EXTT0=
EXTT1=
EXTT2=
EXTT3=
EXTT4=
EXTT5=
EXTT6=
EXTT7=
EXTT8=
EXTT9=
PLAYORDER=
